<svg xmlns="http://www.w3.org/2000/svg" version="1.1" xmlns:xlink="http://www.w3.org/1999/xlink" xmlns:svgjs="http://svgjs.dev/svgjs" width="1440" height="560" preserveAspectRatio="none" viewBox="0 0 1440 560"><g mask="url(&quot;#SvgjsMask1004&quot;)" fill="none"><rect width="1440" height="560" x="0" y="0" fill="url(&quot;#SvgjsLinearGradient1005&quot;)"></rect><path d="M799.722,386.489C819.36,386.311,839.538,379.275,848.958,362.043C858.087,345.343,852.321,325.195,841.957,309.232C832.599,294.819,816.896,285.608,799.722,286.21C783.496,286.778,771.282,298.484,762.319,312.022C751.932,327.71,740.468,346.138,748.913,362.951C757.892,380.829,779.717,386.671,799.722,386.489" fill="rgba(28, 83, 142, 0.4)" class="triangle-float1"></path><path d="M877.4384840631712 290.35827872913364L823.8017835205296 465.19988913184864 980.1774624548577 431.9612124887524z" fill="rgba(28, 83, 142, 0.4)" class="triangle-float3"></path><path d="M1017.7130583893111 134.38649009744853L921.9172814953589-2.4240577279614115 785.106733669949 93.37171916599071 880.9025105639012 230.18226699140064z" fill="rgba(28, 83, 142, 0.4)" class="triangle-float3"></path><path d="M692.541,600.44C739.962,602.316,791.629,591.321,815.571,550.345C839.665,509.108,824.283,458.383,799.344,417.651C775.699,379.032,737.799,347.921,692.541,349.402C649.254,350.818,618.329,386.462,597.194,424.265C576.695,460.93,565.295,504.293,585.289,541.236C606.121,579.728,648.807,598.71,692.541,600.44" fill="rgba(28, 83, 142, 0.4)" class="triangle-float1"></path><path d="M1175.222,520.082C1229.332,524.413,1290.107,512.042,1316.723,464.732C1343.022,417.986,1319.849,361.272,1289.416,317.106C1263.477,279.462,1220.923,260.527,1175.222,259.377C1127.039,258.165,1074.718,269.356,1050.624,311.1C1026.534,352.837,1043.497,403.448,1068.175,444.84C1092.114,484.991,1128.625,516.353,1175.222,520.082" fill="rgba(28, 83, 142, 0.4)" class="triangle-float1"></path><path d="M1077.861476859995 514.0248846341026L1232.8801641939815 522.149069784649 1241.004349344528 367.1303824506624 1085.9856620105413 359.00619730011607z" fill="rgba(28, 83, 142, 0.4)" class="triangle-float3"></path></g><defs><mask id="SvgjsMask1004"><rect width="1440" height="560" fill="#ffffff"></rect></mask><linearGradient x1="15.28%" y1="-39.29%" x2="84.72%" y2="139.29%" gradientUnits="userSpaceOnUse" id="SvgjsLinearGradient1005"><stop stop-color="#0e2a47" offset="0"></stop><stop stop-color="#00459e" offset="1"></stop></linearGradient><style>
                @keyframes float1 {
                    0%{transform: translate(0, 0)}
                    50%{transform: translate(-10px, 0)}
                    100%{transform: translate(0, 0)}
                }

                .triangle-float1 {
                    animation: float1 5s infinite;
                }

                @keyframes float2 {
                    0%{transform: translate(0, 0)}
                    50%{transform: translate(-5px, -5px)}
                    100%{transform: translate(0, 0)}
                }

                .triangle-float2 {
                    animation: float2 4s infinite;
                }

                @keyframes float3 {
                    0%{transform: translate(0, 0)}
                    50%{transform: translate(0, -10px)}
                    100%{transform: translate(0, 0)}
                }

                .triangle-float3 {
                    animation: float3 6s infinite;
                }
            </style></defs></svg>